<?xml version="1.0" encoding="UTF-8"?>
<!DOCTYPE svg PUBLIC "-//W3C//DTD SVG 1.1//EN" "http://www.w3.org/Graphics/SVG/1.1/DTD/svg11.dtd">
<!-- Creator: CorelDRAW 2020 (64 Bit) -->
<svg xmlns="http://www.w3.org/2000/svg" xml:space="preserve" width="1970px" height="1966px" version="1.1" style="shape-rendering:geometricPrecision; text-rendering:geometricPrecision; image-rendering:optimizeQuality; fill-rule:evenodd; clip-rule:evenodd"
viewBox="0 0 1969.91 1965.68"
 xmlns:xlink="http://www.w3.org/1999/xlink"
 xmlns:xodm="http://www.corel.com/coreldraw/odm/2003">
 <defs>
  <style type="text/css">
   <![CDATA[
    .fil0 {fill:#B44848}
   ]]>
  </style>
 </defs>
 <g id="Camada_x0020_1">
  <metadata id="CorelCorpID_0Corel-Layer"/>
  <path class="fil0" d="M666.49 1838.56l-0.18 -0.09 50.32 0c35.1,0 63.6,28.5 63.6,63.6 0,35.1 -28.49,63.61 -63.6,63.61l-262.82 0c-120.06,0 -234.1,-47.73 -318.9,-132.59 -84.79,-84.84 -132.59,-198.84 -132.59,-318.9l0 -175.1c0,-35.1 28.5,-63.6 63.61,-63.6 35.09,0 63.6,28.5 63.6,63.6l0 175.1c0,86.28 34.4,168.09 95.36,229.01 60.94,60.89 142.85,95.36 229.1,95.36l212.5 0zm-610.35 -792.16c-30.98,0 -56.14,-28.5 -56.14,-63.61 0,-35.09 25.16,-63.6 56.14,-63.6l1857.63 0c30.98,0 56.14,28.5 56.14,63.6 0,35.1 -25.16,63.61 -56.14,63.61l-1857.63 0zm73.1 -448.75l0.09 -0.1 0 29.05c0,35.1 -28.5,63.6 -63.6,63.6 -35.1,0 -63.61,-28.5 -63.61,-63.6l0 -175.01c0,-120.02 47.76,-234.13 132.59,-318.91 84.87,-84.82 198.89,-132.58 318.99,-132.58l262.82 0c35.1,0 63.6,28.5 63.6,63.6 0,35.15 -28.45,63.6 -63.6,63.6l-262.82 0c-86.23,0 -168.18,34.36 -229.1,95.28 -60.92,60.92 -95.36,142.86 -95.36,229.1l0 145.97zm1152.81 -470.54l0.1 0.09 -28.78 0c-35.09,0 -63.6,-28.5 -63.6,-63.6 0,-35.09 28.5,-63.6 63.6,-63.6l262.82 0c120.07,0 234.1,47.73 318.91,132.59 84.79,84.84 132.58,198.84 132.58,318.9l0 175.01c0,35.1 -28.5,63.6 -63.6,63.6 -35.15,0 -63.6,-28.45 -63.6,-63.6l0 -175.01c0,-86.24 -34.35,-168.18 -95.28,-229.1 -60.92,-60.92 -142.87,-95.28 -229.1,-95.28l-234.05 0zm558.62 1239.78l-0.1 0.09 0 -28c0,-35.09 28.5,-63.6 63.61,-63.6 35.09,0 63.6,28.5 63.6,63.6l0 175.1c0,120.06 -47.76,234.09 -132.59,318.91 -84.81,84.81 -198.84,132.58 -318.9,132.58l-262.82 0c-35.1,0 -63.6,-28.5 -63.6,-63.6 0,-35.1 28.5,-63.6 63.6,-63.6l262.82 0c86.27,0 168.18,-34.4 229.1,-95.36 60.86,-60.91 95.28,-142.82 95.28,-229.02l0 -147.1z"/>
 </g>
</svg>
